HIERARCHY
ROOT Hips
{
 OFFSET 0.000000 0.000000 0.000000
 CHANNELS 6 Xposition Yposition Zposition Yrotation Xrotation Zrotation
 JOINT Chest
 {
  OFFSET 0.000000 14.067100 -0.020500
  CHANNELS 3 Yrotation Xrotation Zrotation
  JOINT Chest2
  {
   OFFSET 0.000000 9.717300 0.041800
   CHANNELS 3 Yrotation Xrotation Zrotation
   JOINT Chest3
   {
    OFFSET 0.000000 9.672600 0.000000
    CHANNELS 3 Yrotation Xrotation Zrotation
    JOINT Chest4
    {
     OFFSET 0.000000 9.662700 0.000000
     CHANNELS 3 Yrotation Xrotation Zrotation
     JOINT Neck
     {
      OFFSET 0.000000 14.815200 0.000000
      CHANNELS 3 Yrotation Xrotation Zrotation
      JOINT Head
      {
       OFFSET 0.000000 9.056800 0.088400
       CHANNELS 3 Yrotation Xrotation Zrotation
       End Site
       {
        OFFSET 0.000000 17.018200 0.046700
       }
      }
     }
     JOINT RightCollar
     {
      OFFSET -3.269500 9.872600 0.000000
      CHANNELS 3 Yrotation Xrotation Zrotation
      JOINT RightShoulder
      {
       OFFSET -15.850600 0.000000 0.000000
       CHANNELS 3 Yrotation Xrotation Zrotation
       JOINT RightElbow
       {
        OFFSET 0.000000 -29.117400 0.000000
        CHANNELS 3 Yrotation Xrotation Zrotation
        JOINT RightWrist
        {
         OFFSET 0.000000 -23.969300 0.014600
         CHANNELS 3 Yrotation Xrotation Zrotation
         End Site
         {
          OFFSET 0.000000 -18.039300 0.000000
         }
        }
       }
      }
     }
     JOINT LeftCollar
     {
      OFFSET 3.269500 9.872600 0.000000
      CHANNELS 3 Yrotation Xrotation Zrotation
      JOINT LeftShoulder
      {
       OFFSET 15.850600 0.000000 0.000000
       CHANNELS 3 Yrotation Xrotation Zrotation
       JOINT LeftElbow
       {
        OFFSET 0.000000 -29.117400 0.000000
        CHANNELS 3 Yrotation Xrotation Zrotation
        JOINT LeftWrist
        {
         OFFSET 0.000000 -23.969300 0.014600
         CHANNELS 3 Yrotation Xrotation Zrotation
         End Site
         {
          OFFSET 0.000000 -18.039300 0.000000
         }
        }
       }
      }
     }
    }
   }
  }
 }
 JOINT RightHip
 {
  OFFSET -11.600400 0.101300 0.010200
  CHANNELS 3 Yrotation Xrotation Zrotation
  JOINT RightKnee
  {
   OFFSET 0.000000 -45.913300 -0.001400
   CHANNELS 3 Yrotation Xrotation Zrotation
   JOINT RightAnkle
   {
    OFFSET 0.000000 -46.966900 0.018600
    CHANNELS 3 Yrotation Xrotation Zrotation
    JOINT RightToe
    {
     OFFSET 0.000000 -10.064300 17.850900
     CHANNELS 3 Yrotation Xrotation Zrotation
     End Site
     {
      OFFSET 0.000000 -1.607600 6.976100
     }
    }
   }
  }
 }
 JOINT LeftHip
 {
  OFFSET 11.600400 0.101300 0.010200
  CHANNELS 3 Yrotation Xrotation Zrotation
  JOINT LeftKnee
  {
   OFFSET 0.000000 -45.913300 -0.001400
   CHANNELS 3 Yrotation Xrotation Zrotation
   JOINT LeftAnkle
   {
    OFFSET 0.000000 -46.966900 0.018600
    CHANNELS 3 Yrotation Xrotation Zrotation
    JOINT LeftToe
    {
     OFFSET 0.000000 -10.064300 17.850900
     CHANNELS 3 Yrotation Xrotation Zrotation
     End Site
     {
      OFFSET 0.000000 -1.607600 6.976100
     }
    }
   }
  }
 }
}
MOTION
Frames: 16
Frame Time: 0.008333
0.000000 102.636000 0.000000 0.000000 -5.767877 0.000000 0.000000 11.653817 0.000000 0.000000 -5.885947 0.000000 0.000000 -0.000000 0.000000 0.000000 -0.000000 0.000000 0.000000 12.528835 0.000000 0.000000 0.711642 0.000000 0.000000 -0.000000 0.000000 0.000000 0.000000 -90.000000 0.000000 -2.309062 0.000000 0.000000 2.309062 0.000000 0.000000 -0.000000 0.000000 0.000000 -0.000000 90.000000 0.000000 -2.309062 0.000000 0.000000 2.309062 0.000000 0.000000 8.520406 0.000000 0.000000 1.905762 0.000000 -0.000000 -4.658285 0.000000 0.000000 -0.000000 0.000000 0.000000 8.520406 0.000000 0.000000 1.905762 0.000000 -0.000000 -4.658285 0.000000 0.000000 -0.000000 0.000000
-279.885662 61.866592 -11.960046 173.857085 -29.251329 -1.270523 -1.180215 12.277311 1.589759 -0.666175 7.005977 1.295390 -0.821322 8.747763 1.612421 -0.658441 7.004599 1.292042 -0.181881 20.986458 -3.918466 0.818310 3.248785 -7.079944 8.306054 3.526064 -4.363825 -0.981951 -21.642176 -9.587123 23.616502 -52.617411 -11.918544 6.588498 1.017331 -36.655194 -1.190954 0.907377 -5.299230 7.321876 -25.634156 -2.264252 -52.644088 -35.911801 31.443498 -4.663075 9.395680 38.752853 20.161106 -53.340730 -27.321609 -104.864143 66.750579 -93.926303 5.363681 -3.572462 1.336275 0.224563 -0.669094 0.124176 1.224234 -56.082252 9.556931 98.089487 82.813734 96.467254 -7.510905 -8.942154 2.410857 0.275656 0.555031 0.148224
-279.883309 61.867124 -11.957335 173.848031 -29.246267 -1.263435 -1.171050 12.277986 1.586955 -0.664966 7.005042 1.296439 -0.812359 8.746072 1.609507 -0.661347 7.005985 1.294791 -0.172848 20.979688 -3.924702 0.810599 3.240592 -7.072616 8.302167 3.515361 -4.367102 -0.985861 -21.630104 -9.584547 23.619503 -52.621059 -11.913977 6.588998 1.024142 -36.667692 -1.199952 0.896195 -5.297515 7.317583 -25.629727 -2.266004 -52.637723 -35.905157 31.442360 -4.694434 9.397887 38.725917 20.173947 -53.345062 -27.328441 -104.861158 66.747954 -93.923056 5.357680 -3.576928 1.339903 0.218733 -0.665582 0.118509 1.237677 -56.086446 9.547393 98.072756 82.807717 96.451175 -7.505951 -8.940403 2.411926 0.270614 0.552210 0.147468
-279.880681 61.868425 -11.955659 173.843137 -29.245567 -1.261170 -1.165146 12.283044 1.587274 -0.666174 7.002003 1.298131 -0.807504 8.750367 1.607725 -0.662552 7.001780 1.295326 -0.171864 20.974985 -3.926534 0.813041 3.232022 -7.076416 8.300582 3.509307 -4.369976 -0.989141 -21.623432 -9.582694 23.623496 -52.621527 -11.909732 6.588558 1.019927 -36.677473 -1.205646 0.886955 -5.294581 7.317095 -25.621124 -2.266742 -52.637701 -35.906702 31.444135 -4.693713 9.395821 38.726958 20.178262 -53.345774 -27.327240 -104.858254 66.746403 -93.919695 5.349643 -3.577347 1.342058 0.219795 -0.664698 0.117862 1.242522 -56.086307 9.546228 98.061551 82.805274 96.440345 -7.504658 -8.937877 2.413907 0.267761 0.548953 0.146195
-279.878189 61.869638 -11.953704 173.842095 -29.242721 -1.263381 -1.167386 12.283092 1.593824 -0.663331 6.999846 1.294364 -0.805947 8.752116 1.608152 -0.662552 7.000062 1.293889 -0.169002 20.970844 -3.927931 0.815690 3.224367 -7.080115 8.304786 3.507150 -4.372377 -0.997418 -21.617086 -9.581219 23.624560 -52.624888 -11.908481 6.588311 1.021539 -36.681664 -1.209002 0.881348 -5.290871 7.315099 -25.615444 -2.269301 -52.644248 -35.902480 31.449872 -4.694194 9.384811 38.718073 20.176705 -53.350141 -27.317255 -104.851132 66.741026 -93.912114 5.332513 -3.576669 1.337862 0.228738 -0.664044 0.123570 1.245764 -56.088842 9.544738 98.030751 82.804386 96.414812 -7.504295 -8.935703 2.411881 0.265409 0.548069 0.146853
-279.876527 61.870560 -11.951418 173.837234 -29.237303 -1.263690 -1.159852 12.279776 1.602007 -0.666298 6.999683 1.290460 -0.805383 8.751014 1.607448 -0.663148 6.999084 1.293812 -0.164789 20.967875 -3.928258 0.817395 3.218723 -7.082404 8.308287 3.502430 -4.370717 -0.997745 -21.607046 -9.585038 23.622579 -52.627933 -11.909132 6.585802 1.015838 -36.679139 -1.210688 0.877573 -5.288962 7.314009 -25.612023 -2.271291 -52.649981 -35.897862 31.453110 -4.694050 9.385835 38.718520 20.179052 -53.353623 -27.310259 -104.833441 66.731670 -93.891777 5.329710 -3.578924 1.330899 0.238481 -0.659092 0.130439 1.248284 -56.092252 9.545699 97.995120 82.799722 96.379319 -7.502716 -8.936663 2.417116 0.259765 0.550180 0.141625
-279.878449 61.872211 -11.951194 173.839467 -29.238831 -1.254840 -1.162299 12.281456 1.594514 -0.663485 6.998802 1.291980 -0.804783 8.751128 1.607453 -0.662486 6.999221 1.293735 -0.170098 20.966687 -3.929909 0.823632 3.211189 -7.087783 8.310828 3.496022 -4.374843 -1.003714 -21.597000 -9.584169 23.626554 -52.636355 -11.917249 6.580383 1.022798 -36.673143 -1.217487 0.874880 -5.291590 7.302693 -25.609971 -2.269352 -52.648068 -35.891938 31.459576 -4.689294 9.385913 38.717759 20.185024 -53.349743 -27.318608 -104.827175 66.725372 -93.890895 5.325124 -3.581345 1.330703 0.243979 -0.657398 0.134771 1.261290 -56.085885 9.523868 97.943625 82.797093 96.321853 -7.494421 -8.935207 2.430320 0.249573 0.550810 0.133215
-279.879837 61.873311 -11.950227 173.845367 -29.236749 -1.252361 -1.167006 12.281967 1.592035 -0.663624 6.997120 1.290125 -0.797945 8.758583 1.610537 -0.658784 7.005632 1.294980 -0.177224 20.951365 -3.934760 0.828702 3.202798 -7.089802 8.302680 3.481304 -4.381845 -1.002426 -21.593078 -9.585350 23.624481 -52.641227 -11.918696 6.576361 1.017938 -36.674480 -1.227858 0.856546 -5.295738 7.297121 -25.610052 -2.266810 -52.646932 -35.887521 31.460191 -4.686882 9.386169 38.717015 20.184326 -53.349938 -27.325334 -104.824249 66.722672 -93.893499 5.330502 -3.582760 1.335380 0.248233 -0.658058 0.135389 1.262070 -56.085854 9.514145 97.894105 82.799397 96.271116 -7.492795 -8.928156 2.430130 0.245405 0.548748 0.135657
-279.880508 61.874499 -11.949844 173.843566 -29.237559 -1.250087 -1.164884 12.287079 1.592881 -0.658560 7.004958 1.294774 -0.802908 8.747952 1.605845 -0.655954 7.013398 1.297146 -0.173629 20.945907 -3.935253 0.827164 3.193699 -7.092418 8.297407 3.472145 -4.385774 -1.003633 -21.590505 -9.590863 23.620775 -52.646021 -11.912652 6.574859 1.017169 -36.674988 -1.231514 0.842922 -5.298726 7.292898 -25.604563 -2.265193 -52.647254 -35.887093 31.464456 -4.681817 9.390915 38.720921 20.187000 -53.349963 -27.326975 -104.821290 66.720313 -93.894566 5.337032 -3.578002 1.340635 0.246147 -0.662279 0.134160 1.264954 -56.084183 9.511308 97.881746 82.799358 96.258840 -7.493113 -8.926058 2.430414 0.237273 0.546826 0.136115
-279.881471 61.874835 -11.948445 173.838748 -29.233194 -1.246204 -1.161199 12.284998 1.591987 -0.658094 7.008943 1.295256 -0.799443 8.753098 1.608801 -0.658560 7.005364 1.294900 -0.168860 20.950022 -3.934546 0.825760 3.182287 -7.094417 8.296239 3.467018 -4.389851 -0.991665 -21.586379 -9.601199 23.596246 -52.648348 -11.897279 6.577278 1.014972 -36.673516 -1.232968 0.837417 -5.298762 7.294256 -25.599623 -2.268101 -52.650460 -35.887131 31.466139 -4.679157 9.387116 38.725817 20.196967 -53.353145 -27.333716 -104.814058 66.717985 -93.888338 5.343056 -3.575177 1.345483 0.242745 -0.662284 0.131446 1.264926 -56.087798 9.510991 97.863433 82.799976 96.242505 -7.501680 -8.924094 2.428488 0.241949 0.545659 0.135109
-279.883430 61.874771 -11.946987 173.838266 -29.227539 -1.240399 -1.162883 12.281385 1.586029 -0.657302 7.012901 1.296452 -0.797804 8.753886 1.608107 -0.657129 7.006426 1.295173 -0.167055 20.950416 -3.935208 0.826167 3.171418 -7.093193 8.292675 3.461109 -4.396869 -0.986724 -21.586830 -9.599328 23.606522 -52.643135 -11.902450 6.568308 1.010701 -36.681751 -1.236898 0.827966 -5.295514 7.301786 -25.595617 -2.271026 -52.655583 -35.891880 31.465385 -4.680291 9.388882 38.726922 20.202302 -53.358852 -27.347500 -104.812594 66.722964 -93.890876 5.347700 -3.572305 1.351642 0.237168 -0.664026 0.125283 1.263396 -56.091872 9.507046 97.845252 82.804949 96.220309 -7.498063 -8.921413 2.426182 0.250360 0.544814 0.137070
-279.884445 61.874910 -11.946191 173.839560 -29.225059 -1.238442 -1.165007 12.288361 1.587482 -0.656348 7.007996 1.294225 -0.799050 8.757167 1.606354 -0.657041 7.007517 1.294214 -0.162715 20.944807 -3.932948 0.825640 3.167199 -7.093195 8.297035 3.450127 -4.401649 -0.989580 -21.581797 -9.596939 23.606148 -52.645628 -11.905469 6.569027 1.009686 -36.673309 -1.234831 0.825040 -5.289666 7.307252 -25.598139 -2.273271 -52.659870 -35.899035 31.463417 -4.679281 9.390083 38.726540 20.202974 -53.362849 -27.351111 -104.813985 66.724062 -93.894534 5.342051 -3.570831 1.354204 0.242632 -0.665711 0.123951 1.263520 -56.094211 9.503402 97.836309 82.811477 96.208576 -7.485374 -8.919040 2.425330 0.250967 0.543588 0.138955
-279.884078 61.875652 -11.946641 173.835062 -29.228821 -1.237786 -1.160374 12.293277 1.590200 -0.656021 7.008314 1.294218 -0.794367 8.763521 1.609390 -0.660259 7.005523 1.292132 -0.160305 20.941660 -3.931301 0.823822 3.163369 -7.092630 8.298605 3.440634 -4.407943 -0.995972 -21.575503 -9.592532 23.607000 -52.648561 -11.907325 6.563521 1.015493 -36.679022 -1.234324 0.823423 -5.289166 7.304507 -25.600930 -2.270752 -52.656824 -35.906479 31.457979 -4.687435 9.387529 38.725156 20.202366 -53.361461 -27.344854 -104.816840 66.726753 -93.897500 5.336567 -3.569879 1.351589 0.236923 -0.667256 0.127674 1.262011 -56.090724 9.508032 97.873083 82.827769 96.242092 -7.459982 -8.920153 2.429030 0.249817 0.541299 0.135954
-279.882555 61.876165 -11.946895 173.834608 -29.231756 -1.242805 -1.158136 12.296031 1.597142 -0.655697 7.008868 1.294240 -0.788352 8.767490 1.611756 -0.654875 7.010094 1.294898 -0.169651 20.935192 -3.932790 0.823187 3.159641 -7.094094 8.288503 3.429508 -4.416909 -1.001705 -21.571016 -9.589116 23.605748 -52.649640 -11.901124 6.567816 1.016978 -36.688344 -1.244525 0.817484 -5.292021 7.299018 -25.605900 -2.266660 -52.651837 -35.910137 31.451231 -4.687242 9.395345 38.722272 20.195164 -53.360324 -27.334894 -104.825795 66.727625 -93.899325 5.330309 -3.572923 1.338574 0.247185 -0.667560 0.136471 1.249963 -56.087786 9.522745 97.882369 82.830343 96.247622 -7.450502 -8.922286 2.426149 0.243024 0.541464 0.138548
-279.882171 61.876177 -11.946681 173.833509 -29.231302 -1.242085 -1.150615 12.296471 1.602746 -0.655116 7.010043 1.294942 -0.790232 8.769102 1.608035 -0.655113 7.010227 1.295642 -0.173237 20.931878 -3.931197 0.821757 3.161171 -7.090512 8.284029 3.424290 -4.418685 -1.004173 -21.569390 -9.587946 23.622926 -52.651246 -11.908270 6.554543 1.024404 -36.701653 -1.250741 0.814497 -5.289861 7.297648 -25.608414 -2.266239 -52.648320 -35.911709 31.450681 -4.690561 9.399783 38.718270 20.197123 -53.360161 -27.335089 -104.822619 66.728801 -93.896132 5.331200 -3.572414 1.339021 0.254289 -0.668015 0.137610 1.250113 -56.089214 9.525425 97.892789 82.832914 96.256049 -7.448474 -8.920910 2.427099 0.237744 0.539988 0.138670
-279.883556 61.876742 -11.947997 173.848366 -29.235940 -1.240577 -1.163437 12.303428 1.593299 -0.653501 7.011150 1.295081 -0.786639 8.768568 1.608088 -0.659741 7.008673 1.297366 -0.170327 20.936789 -3.930988 0.822707 3.166708 -7.084827 8.283980 3.422820 -4.419426 -1.007174 -21.568638 -9.586363 23.609249 -52.653549 -11.891345 6.562605 1.024838 -36.708726 -1.256448 0.812445 -5.288021 7.301825 -25.610557 -2.264078 -52.645254 -35.914622 31.444231 -4.691798 9.403615 38.721496 20.193732 -53.352753 -27.345237 -104.845736 66.728497 -93.916987 5.320040 -3.585415 1.333975 0.267093 -0.665866 0.144705 1.251414 -56.085631 9.512309 97.878667 82.836343 96.241289 -7.460389 -8.912238 2.435382 0.242652 0.535529 0.133245
